<svg width="45" height="45" viewBox="0 0 45 45" fill="none" xmlns="http://www.w3.org/2000/svg">
<path d="M43.5938 37.2656H42.1875V13.0078C42.1875 11.6279 41.0678 10.5469 39.6387 10.5469H37.2656V1.40625C37.2656 1.21977 37.1915 1.04093 37.0597 0.909066C36.9278 0.777204 36.749 0.703125 36.5625 0.703125H33.75C33.5635 0.703125 33.3847 0.777204 33.2528 0.909066C33.121 1.04093 33.0469 1.21977 33.0469 1.40625V2.28955L19.5838 6.32812H13.0078C12.3554 6.32885 11.7298 6.58835 11.2685 7.04971C10.8071 7.51107 10.5476 8.1366 10.5469 8.78906V9.84375H8.4375C8.25102 9.84375 8.07218 9.91783 7.94032 10.0497C7.80845 10.1816 7.73438 10.3604 7.73438 10.5469H5.27344C4.62098 10.5476 3.99545 10.8071 3.53409 11.2685C3.07273 11.7298 2.81322 12.3554 2.8125 13.0078V37.2656H1.40625C1.21977 37.2656 1.04093 37.3397 0.909066 37.4716C0.777204 37.6034 0.703125 37.7823 0.703125 37.9688V41.8359C0.703846 42.4884 0.963354 43.1139 1.42471 43.5753C1.88607 44.0366 2.5116 44.2962 3.16406 44.2969H41.8359C42.4884 44.2962 43.1139 44.0366 43.5753 43.5753C44.0366 43.1139 44.2962 42.4884 44.2969 41.8359V37.9688C44.2969 37.7823 44.2228 37.6034 44.0909 37.4716C43.9591 37.3397 43.7802 37.2656 43.5938 37.2656ZM34.4531 2.10938H35.8594V24.6094H34.4531V2.10938ZM20.3906 7.5542L33.0469 3.75732V22.9614L20.3906 19.1646V7.5542ZM11.9531 8.78906C11.9534 8.50941 12.0646 8.24129 12.2623 8.04354C12.46 7.8458 12.7282 7.73461 13.0078 7.73438H18.9844V18.9844H13.0078C12.7282 18.9841 12.46 18.8729 12.2623 18.6752C12.0646 18.4775 11.9534 18.2093 11.9531 17.9297V8.78906ZM16.0646 27.4219L14.8922 20.3906H16.9822L18.1547 27.4219H16.0646ZM22.5 28.8281V29.5312H14.0625V28.8281H22.5ZM9.14062 11.25H10.5469V15.4688H9.14062V11.25ZM8.4375 16.875H10.5469V17.9297C10.5476 18.5821 10.8071 19.2077 11.2685 19.669C11.7298 20.1304 12.3554 20.3899 13.0078 20.3906H13.4666L14.6391 27.4219H13.3594C13.1729 27.4219 12.9941 27.496 12.8622 27.6278C12.7303 27.7597 12.6562 27.9385 12.6562 28.125V30.2344C12.6562 30.4209 12.7303 30.5997 12.8622 30.7316C12.9941 30.8634 13.1729 30.9375 13.3594 30.9375H23.2031C23.3896 30.9375 23.5684 30.8634 23.7003 30.7316C23.8322 30.5997 23.9062 30.4209 23.9062 30.2344V28.125C23.9062 27.9385 23.8322 27.7597 23.7003 27.6278C23.5684 27.496 23.3896 27.4219 23.2031 27.4219H19.5803L18.4078 20.3906H19.5838L33.0469 24.4292V25.3125C33.0469 25.499 33.121 25.6778 33.2528 25.8097C33.3847 25.9415 33.5635 26.0156 33.75 26.0156H36.5625C36.749 26.0156 36.9278 25.9415 37.0597 25.8097C37.1915 25.6778 37.2656 25.499 37.2656 25.3125V14.0625H38.6719V35.1562H6.32812V14.0625H7.73438V16.1719C7.73438 16.3584 7.80845 16.5372 7.94032 16.6691C8.07218 16.8009 8.25102 16.875 8.4375 16.875ZM4.21875 13.0078C4.21898 12.7282 4.33018 12.46 4.52792 12.2623C4.72566 12.0646 4.99379 11.9534 5.27344 11.9531H7.73438V12.6562H5.625C5.43852 12.6562 5.25968 12.7303 5.12782 12.8622C4.99595 12.9941 4.92188 13.1729 4.92188 13.3594V35.8594C4.92188 36.0459 4.99595 36.2247 5.12782 36.3566C5.25968 36.4884 5.43852 36.5625 5.625 36.5625H39.375C39.5615 36.5625 39.7403 36.4884 39.8722 36.3566C40.004 36.2247 40.0781 36.0459 40.0781 35.8594V13.3594C40.0781 13.1729 40.004 12.9941 39.8722 12.8622C39.7403 12.7303 39.5615 12.6562 39.375 12.6562H37.2656V11.9531H39.6387C40.2899 11.9531 40.7812 12.4066 40.7812 13.0078V37.2656H4.21875V13.0078ZM25.1147 38.6719L24.7632 40.0781H20.2368L19.8853 38.6719H25.1147ZM42.8906 41.8359C42.8904 42.1156 42.7792 42.3837 42.5815 42.5815C42.3837 42.7792 42.1156 42.8904 41.8359 42.8906H3.16406C2.88441 42.8904 2.61628 42.7792 2.41854 42.5815C2.2208 42.3837 2.10961 42.1156 2.10938 41.8359V38.6719H18.4351L19.0055 40.9518C19.0435 41.1039 19.1313 41.2389 19.2548 41.3354C19.3784 41.4319 19.5307 41.4844 19.6875 41.4844H25.3125C25.4693 41.4844 25.6216 41.4319 25.7452 41.3354C25.8687 41.2389 25.9565 41.1039 25.9945 40.9518L26.5649 38.6719H42.8906V41.8359Z" fill="#30E3CA"/>
</svg>
