<svg width="45" height="45" viewBox="0 0 45 45" fill="none" xmlns="http://www.w3.org/2000/svg">
<path d="M40.4344 34.8362C40.7984 34.8362 41.0935 34.5411 41.0935 34.1771V6.43017C41.0935 6.06612 40.7984 5.77099 40.4344 5.77099H38.2525V3.50024C38.2525 3.1362 37.9573 2.84106 37.5933 2.84106H35.4114V0.65918C35.4114 0.295137 35.1163 0 34.7522 0H4.56567C4.20163 0 3.90649 0.295137 3.90649 0.65918V38.5698C3.90649 38.9339 4.20163 39.229 4.56567 39.229H6.74756V41.4109C6.74756 41.7749 7.0427 42.0701 7.40674 42.0701H9.58862V44.3408C9.58862 44.7049 9.88376 45 10.2478 45H40.4343C40.7983 45 41.0935 44.7049 41.0935 44.3408V37.2531C41.0935 36.889 40.7983 36.5939 40.4343 36.5939C40.0702 36.5939 39.7751 36.889 39.7751 37.2531V43.6816H10.9071V42.0702H37.5933C37.9573 42.0702 38.2525 41.775 38.2525 41.411V30.1915C38.2525 29.8274 37.9573 29.5323 37.5933 29.5323C37.2293 29.5323 36.9341 29.8274 36.9341 30.1915V40.7517H8.06592V39.229H34.7521C35.1162 39.229 35.4113 38.9339 35.4113 38.5698V24.6636C35.4113 24.2996 35.1162 24.0044 34.7521 24.0044C34.3881 24.0044 34.093 24.2996 34.093 24.6636V37.9107H5.22485V1.31836H34.093V21.5796C34.093 21.9437 34.3881 22.2388 34.7521 22.2388C35.1162 22.2388 35.4113 21.9437 35.4113 21.5796V4.15942H36.934V27.1132C36.934 27.4772 37.2292 27.7724 37.5932 27.7724C37.9573 27.7724 38.2524 27.4772 38.2524 27.1132V7.08935H39.7751V34.1771C39.7752 34.5411 40.0703 34.8362 40.4344 34.8362V34.8362Z" fill="#30E3CA"/>
<path d="M17.4771 16.2852V4.03296C17.4771 3.66892 17.1819 3.37378 16.8179 3.37378H7.93945C7.57541 3.37378 7.28027 3.66892 7.28027 4.03296V16.2851C7.28027 16.6491 7.57541 16.9443 7.93945 16.9443H16.8179C17.1819 16.9444 17.4771 16.6492 17.4771 16.2852ZM16.1587 15.626H8.59863V4.69214H16.1586V15.626H16.1587Z" fill="#30E3CA"/>
<path d="M32.0376 4.03296C32.0376 3.66892 31.7424 3.37378 31.3784 3.37378H20.014C19.65 3.37378 19.3549 3.66892 19.3549 4.03296V7.05165C19.3549 7.41569 19.65 7.71083 20.014 7.71083H31.3784C31.7424 7.71083 32.0376 7.41569 32.0376 7.05165V4.03296ZM30.7192 6.39247H20.6732V4.69214H30.7192V6.39247Z" fill="#30E3CA"/>
<path d="M31.3784 9.58868H20.014C19.65 9.58868 19.3549 9.88382 19.3549 10.2479C19.3549 10.6119 19.65 10.907 20.014 10.907H31.3784C31.7424 10.907 32.0376 10.6119 32.0376 10.2479C32.0376 9.88382 31.7424 9.58868 31.3784 9.58868Z" fill="#30E3CA"/>
<path d="M31.3784 12.4297H20.014C19.65 12.4297 19.3549 12.7249 19.3549 13.0889C19.3549 13.453 19.65 13.7481 20.014 13.7481H31.3784C31.7424 13.7481 32.0376 13.453 32.0376 13.0889C32.0376 12.7249 31.7424 12.4297 31.3784 12.4297Z" fill="#30E3CA"/>
<path d="M31.3784 15.626H20.014C19.65 15.626 19.3549 15.9211 19.3549 16.2852C19.3549 16.6492 19.65 16.9443 20.014 16.9443H31.3784C31.7424 16.9443 32.0376 16.6492 32.0376 16.2852C32.0376 15.9211 31.7424 15.626 31.3784 15.626Z" fill="#30E3CA"/>
<path d="M31.3784 18.8221H14.687C14.3229 18.8221 14.0278 19.1173 14.0278 19.4813C14.0278 19.8454 14.3229 20.1405 14.687 20.1405H31.3784C31.7424 20.1405 32.0375 19.8454 32.0375 19.4813C32.0375 19.1173 31.7424 18.8221 31.3784 18.8221Z" fill="#30E3CA"/>
<path d="M11.4909 18.8221H7.93945C7.57541 18.8221 7.28027 19.1173 7.28027 19.4813C7.28027 19.8454 7.57541 20.1405 7.93945 20.1405H11.4908C11.8548 20.1405 12.1499 19.8454 12.1499 19.4813C12.1499 19.1173 11.8549 18.8221 11.4909 18.8221Z" fill="#30E3CA"/>
<path d="M31.3784 22.0184H14.687C14.3229 22.0184 14.0278 22.3136 14.0278 22.6776C14.0278 23.0417 14.3229 23.3368 14.687 23.3368H31.3784C31.7424 23.3368 32.0375 23.0417 32.0375 22.6776C32.0375 22.3136 31.7424 22.0184 31.3784 22.0184V22.0184Z" fill="#30E3CA"/>
<path d="M11.4909 22.0184H7.93945C7.57541 22.0184 7.28027 22.3136 7.28027 22.6776C7.28027 23.0417 7.57541 23.3368 7.93945 23.3368H11.4908C11.8548 23.3368 12.1499 23.0417 12.1499 22.6776C12.1499 22.3136 11.8549 22.0184 11.4909 22.0184V22.0184Z" fill="#30E3CA"/>
<path d="M31.3784 25.2146H14.687C14.3229 25.2146 14.0278 25.5097 14.0278 25.8738C14.0278 26.2378 14.3229 26.533 14.687 26.533H31.3784C31.7424 26.533 32.0375 26.2378 32.0375 25.8738C32.0375 25.5097 31.7424 25.2146 31.3784 25.2146Z" fill="#30E3CA"/>
<path d="M11.4909 25.2146H7.93945C7.57541 25.2146 7.28027 25.5097 7.28027 25.8738C7.28027 26.2378 7.57541 26.533 7.93945 26.533H11.4908C11.8548 26.533 12.1499 26.2378 12.1499 25.8738C12.1499 25.5097 11.8549 25.2146 11.4909 25.2146Z" fill="#30E3CA"/>
<path d="M31.3784 28.4108H14.687C14.3229 28.4108 14.0278 28.706 14.0278 29.07C14.0278 29.4341 14.3229 29.7292 14.687 29.7292H31.3784C31.7424 29.7292 32.0375 29.4341 32.0375 29.07C32.0375 28.706 31.7424 28.4108 31.3784 28.4108Z" fill="#30E3CA"/>
<path d="M11.4909 28.4108H7.93945C7.57541 28.4108 7.28027 28.706 7.28027 29.07C7.28027 29.4341 7.57541 29.7292 7.93945 29.7292H11.4908C11.8548 29.7292 12.1499 29.4341 12.1499 29.07C12.1499 28.706 11.8549 28.4108 11.4909 28.4108Z" fill="#30E3CA"/>
<path d="M31.3784 31.6071H14.687C14.3229 31.6071 14.0278 31.9022 14.0278 32.2662C14.0278 32.6303 14.3229 32.9254 14.687 32.9254H31.3784C31.7424 32.9254 32.0375 32.6303 32.0375 32.2662C32.0375 31.9022 31.7424 31.6071 31.3784 31.6071Z" fill="#30E3CA"/>
<path d="M11.4909 31.6071H7.93945C7.57541 31.6071 7.28027 31.9022 7.28027 32.2662C7.28027 32.6303 7.57541 32.9254 7.93945 32.9254H11.4908C11.8548 32.9254 12.1499 32.6303 12.1499 32.2662C12.1499 31.9022 11.8549 31.6071 11.4909 31.6071Z" fill="#30E3CA"/>
</svg>
