<svg width="45" height="45" viewBox="0 0 45 45" fill="none" xmlns="http://www.w3.org/2000/svg">
<path d="M13.1722 43.7838H1.82432C1.66304 43.7838 1.50837 43.7197 1.39433 43.6057C1.28028 43.4916 1.21622 43.3369 1.21622 43.1757V12.1318C1.21622 11.9705 1.28028 11.8158 1.39433 11.7018C1.50837 11.5877 1.66304 11.5236 1.82432 11.5236H13.1722C13.3335 11.5236 13.4882 11.5877 13.6022 11.7018C13.7163 11.8158 13.7803 11.9705 13.7803 12.1318V43.1757C13.7803 43.3369 13.7163 43.4916 13.6022 43.6057C13.4882 43.7197 13.3335 43.7838 13.1722 43.7838ZM2.43243 42.5676H12.5641V12.7399H2.43243V42.5676Z" fill="#30E3CA"/>
<path d="M43.1757 43.7838H31.8278C31.6665 43.7838 31.5118 43.7197 31.3978 43.6057C31.2837 43.4916 31.2197 43.337 31.2197 43.1757V21.0241C31.2197 20.8628 31.2837 20.7082 31.3978 20.5941C31.5118 20.4801 31.6665 20.416 31.8278 20.416H43.1757C43.337 20.416 43.4916 20.4801 43.6057 20.5941C43.7197 20.7082 43.7838 20.8628 43.7838 21.0241V43.1757C43.7838 43.337 43.7197 43.4916 43.6057 43.6057C43.4916 43.7197 43.337 43.7838 43.1757 43.7838ZM32.4359 42.5676H42.5676V21.6322H32.4359V42.5676Z" fill="#30E3CA"/>
<path d="M31.8278 43.7838H13.1722C13.0109 43.7838 12.8563 43.7197 12.7422 43.6057C12.6282 43.4916 12.5641 43.337 12.5641 43.1757V1.82432C12.5641 1.66304 12.6282 1.50837 12.7422 1.39433C12.8563 1.28028 13.0109 1.21622 13.1722 1.21622H31.8278C31.9891 1.21622 32.1437 1.28028 32.2578 1.39433C32.3718 1.50837 32.4359 1.66304 32.4359 1.82432V43.1757C32.4359 43.337 32.3718 43.4916 32.2578 43.6057C32.1437 43.7197 31.9891 43.7838 31.8278 43.7838ZM13.7803 42.5676H31.2197V2.43243H13.7803V42.5676Z" fill="#30E3CA"/>
<path d="M27.2122 43.7838H17.7866C17.6253 43.7838 17.4706 43.7197 17.3566 43.6057C17.2425 43.4916 17.1784 43.337 17.1784 43.1757V28.7982C17.1784 28.6369 17.2425 28.4822 17.3566 28.3682C17.4706 28.2541 17.6253 28.1901 17.7866 28.1901H27.2122C27.3735 28.1901 27.5282 28.2541 27.6422 28.3682C27.7563 28.4822 27.8203 28.6369 27.8203 28.7982V43.1757C27.8203 43.337 27.7563 43.4916 27.6422 43.6057C27.5282 43.7197 27.3735 43.7838 27.2122 43.7838ZM18.3947 42.5676H26.6041V29.4063H18.3947V42.5676Z" fill="#30E3CA"/>
<path d="M9.42568 22.2318H5.5727C5.41142 22.2318 5.25675 22.1678 5.1427 22.0537C5.02866 21.9397 4.96459 21.785 4.96459 21.6237V17.772C4.96459 17.6107 5.02866 17.456 5.1427 17.342C5.25675 17.2279 5.41142 17.1639 5.5727 17.1639H9.42568C9.58696 17.1639 9.74163 17.2279 9.85568 17.342C9.96972 17.456 10.0338 17.6107 10.0338 17.772V21.6237C10.0338 21.785 9.96972 21.9397 9.85568 22.0537C9.74163 22.1678 9.58696 22.2318 9.42568 22.2318ZM6.18264 21.0156H8.81757V18.3801H6.18081L6.18264 21.0156Z" fill="#30E3CA"/>
<path d="M9.42568 30.1877H5.5727C5.41142 30.1877 5.25675 30.1236 5.1427 30.0096C5.02866 29.8955 4.96459 29.7409 4.96459 29.5796V25.7284C4.96459 25.5672 5.02866 25.4125 5.1427 25.2984C5.25675 25.1844 5.41142 25.1203 5.5727 25.1203H9.42568C9.58696 25.1203 9.74163 25.1844 9.85568 25.2984C9.96972 25.4125 10.0338 25.5672 10.0338 25.7284V29.5796C10.0338 29.7409 9.96972 29.8955 9.85568 30.0096C9.74163 30.1236 9.58696 30.1877 9.42568 30.1877ZM6.18264 28.9715H8.81757V26.3366H6.18081L6.18264 28.9715Z" fill="#30E3CA"/>
<path d="M9.42568 38.1436H5.5727C5.41142 38.1436 5.25675 38.0795 5.1427 37.9655C5.02866 37.8514 4.96459 37.6968 4.96459 37.5355V33.6843C4.96459 33.523 5.02866 33.3684 5.1427 33.2543C5.25675 33.1403 5.41142 33.0762 5.5727 33.0762H9.42568C9.58696 33.0762 9.74163 33.1403 9.85568 33.2543C9.96972 33.3684 10.0338 33.523 10.0338 33.6843V37.5355C10.0338 37.6968 9.96972 37.8514 9.85568 37.9655C9.74163 38.0795 9.58696 38.1436 9.42568 38.1436ZM6.18264 36.9274H8.81757V34.2924H6.18081L6.18264 36.9274Z" fill="#30E3CA"/>
<path d="M39.4273 30.1877H35.5743C35.413 30.1877 35.2584 30.1236 35.1443 30.0096C35.0303 29.8955 34.9662 29.7409 34.9662 29.5796V25.7284C34.9662 25.5672 35.0303 25.4125 35.1443 25.2984C35.2584 25.1844 35.413 25.1203 35.5743 25.1203H39.4255C39.5867 25.1203 39.7414 25.1844 39.8555 25.2984C39.9695 25.4125 40.0336 25.5672 40.0336 25.7284V29.5796C40.0336 29.7406 39.9698 29.895 39.8561 30.0089C39.7425 30.1229 39.5882 30.1872 39.4273 30.1877V30.1877ZM36.1843 28.9715H38.8192V26.3366H36.1824L36.1843 28.9715Z" fill="#30E3CA"/>
<path d="M39.4273 38.1436H35.5743C35.413 38.1436 35.2584 38.0795 35.1443 37.9655C35.0303 37.8514 34.9662 37.6968 34.9662 37.5355V33.6843C34.9662 33.523 35.0303 33.3684 35.1443 33.2543C35.2584 33.1403 35.413 33.0762 35.5743 33.0762H39.4255C39.5867 33.0762 39.7414 33.1403 39.8555 33.2543C39.9695 33.3684 40.0336 33.523 40.0336 33.6843V37.5355C40.0336 37.6964 39.9698 37.8508 39.8561 37.9648C39.7425 38.0788 39.5882 38.1431 39.4273 38.1436V38.1436ZM36.1843 36.9274H38.8192V34.2924H36.1824L36.1843 36.9274Z" fill="#30E3CA"/>
<path d="M20.4324 9.71209H16.5801C16.4188 9.71209 16.2641 9.64803 16.1501 9.53398C16.036 9.41994 15.972 9.26527 15.972 9.10399V5.25284C15.972 5.09156 16.036 4.93688 16.1501 4.82284C16.2641 4.7088 16.4188 4.64473 16.5801 4.64473H20.4324C20.5937 4.64473 20.7484 4.7088 20.8624 4.82284C20.9765 4.93688 21.0405 5.09156 21.0405 5.25284V9.10399C21.0405 9.26527 20.9765 9.41994 20.8624 9.53398C20.7484 9.64803 20.5937 9.71209 20.4324 9.71209ZM17.1894 8.49588H19.8243V5.86095H17.1882L17.1894 8.49588Z" fill="#30E3CA"/>
<path d="M20.4324 17.6686H16.5801C16.4188 17.6686 16.2641 17.6045 16.1501 17.4905C16.036 17.3764 15.972 17.2218 15.972 17.0605V13.2087C15.972 13.0474 16.036 12.8928 16.1501 12.7787C16.2641 12.6647 16.4188 12.6006 16.5801 12.6006H20.4324C20.5937 12.6006 20.7484 12.6647 20.8624 12.7787C20.9765 12.8928 21.0405 13.0474 21.0405 13.2087V17.0605C21.0405 17.2218 20.9765 17.3764 20.8624 17.4905C20.7484 17.6045 20.5937 17.6686 20.4324 17.6686ZM17.1894 16.4524H19.8243V13.8168H17.1882L17.1894 16.4524Z" fill="#30E3CA"/>
<path d="M20.4324 25.6245H16.5801C16.4188 25.6245 16.2641 25.5604 16.1501 25.4463C16.036 25.3323 15.972 25.1776 15.972 25.0164V21.1652C15.972 21.0039 16.036 20.8492 16.1501 20.7352C16.2641 20.6212 16.4188 20.5571 16.5801 20.5571H20.4324C20.5937 20.5571 20.7484 20.6212 20.8624 20.7352C20.9765 20.8492 21.0405 21.0039 21.0405 21.1652V25.0164C21.0405 25.1776 20.9765 25.3323 20.8624 25.4463C20.7484 25.5604 20.5937 25.6245 20.4324 25.6245ZM17.1894 24.4082H19.8243V21.7733H17.1882L17.1894 24.4082Z" fill="#30E3CA"/>
<path d="M28.4199 9.71209H24.5676C24.4063 9.71209 24.2516 9.64803 24.1376 9.53398C24.0235 9.41994 23.9595 9.26527 23.9595 9.10399V5.25284C23.9595 5.09156 24.0235 4.93688 24.1376 4.82284C24.2516 4.7088 24.4063 4.64473 24.5676 4.64473H28.4187C28.58 4.64473 28.7347 4.7088 28.8487 4.82284C28.9627 4.93688 29.0268 5.09156 29.0268 5.25284V9.10399C29.0268 9.26506 28.9629 9.41955 28.8491 9.53355C28.7354 9.64756 28.581 9.71177 28.4199 9.71209ZM25.1769 8.49588H27.8118V5.86095H25.1757L25.1769 8.49588Z" fill="#30E3CA"/>
<path d="M28.4199 17.6686H24.5676C24.4063 17.6686 24.2516 17.6045 24.1376 17.4905C24.0235 17.3764 23.9595 17.2218 23.9595 17.0605V13.2087C23.9595 13.0474 24.0235 12.8928 24.1376 12.7787C24.2516 12.6647 24.4063 12.6006 24.5676 12.6006H28.4187C28.58 12.6006 28.7347 12.6647 28.8487 12.7787C28.9627 12.8928 29.0268 13.0474 29.0268 13.2087V17.0605C29.0268 17.2215 28.9629 17.376 28.8491 17.49C28.7354 17.604 28.581 17.6683 28.4199 17.6686ZM25.1769 16.4524H27.8118V13.8168H25.1757L25.1769 16.4524Z" fill="#30E3CA"/>
<path d="M28.4199 25.6245H24.5676C24.4063 25.6245 24.2516 25.5604 24.1376 25.4463C24.0235 25.3323 23.9595 25.1776 23.9595 25.0164V21.1652C23.9595 21.0039 24.0235 20.8492 24.1376 20.7352C24.2516 20.6212 24.4063 20.5571 24.5676 20.5571H28.4187C28.58 20.5571 28.7347 20.6212 28.8487 20.7352C28.9627 20.8492 29.0268 21.0039 29.0268 21.1652V25.0164C29.0268 25.1774 28.9629 25.3319 28.8491 25.4459C28.7354 25.5599 28.581 25.6241 28.4199 25.6245ZM25.1769 24.4082H27.8118V21.7733H25.1757L25.1769 24.4082Z" fill="#30E3CA"/>
</svg>
