<svg width="45" height="45" viewBox="0 0 45 45" fill="none" xmlns="http://www.w3.org/2000/svg">
<path d="M22.4999 22.558C10.6412 22.558 0.993056 32.2062 0.993056 44.0649C0.993056 44.5811 1.412 45 1.92817 45C2.44433 45 2.86328 44.5811 2.86328 44.0649C2.86328 33.2366 11.6718 24.4281 22.5 24.4281C33.3283 24.4281 42.1368 33.2366 42.1368 44.0649C42.1368 44.5811 42.5557 45 43.0719 45C43.588 45 44.007 44.5811 44.007 44.0649C44.0069 32.2043 34.3587 22.558 22.4999 22.558Z" fill="#30E3CA"/>
<path d="M22.5 0C16.8296 0 12.2141 4.61367 12.2141 10.2859C12.2141 15.9581 16.8297 20.5718 22.5 20.5718C28.1702 20.5718 32.7858 15.9581 32.7858 10.2859C32.7858 4.61367 28.1703 0 22.5 0ZM22.5 18.7016C17.8601 18.7016 14.0842 14.9258 14.0842 10.2859C14.0842 5.64601 17.8601 1.87014 22.5 1.87014C27.1398 1.87014 30.9157 5.64601 30.9157 10.2859C30.9157 14.9258 27.1398 18.7016 22.5 18.7016Z" fill="#30E3CA"/>
</svg>
